<?xml version="1.0" standalone="no"?>
<!DOCTYPE svg PUBLIC "-//W3C//DTD SVG 20010904//EN"
 "http://www.w3.org/TR/2001/REC-SVG-20010904/DTD/svg10.dtd">
<svg version="1.0" xmlns="http://www.w3.org/2000/svg"
 width="600.000000pt" height="315.000000pt" viewBox="0 0 600.000000 315.000000"
 preserveAspectRatio="xMidYMid meet">
<metadata>
Created by potrace 1.14, written by Peter Selinger 2001-2017
</metadata>
<g transform="translate(0.000000,315.000000) scale(0.100000,-0.100000)"
fill="#000000" stroke="none">
<path d="M1430 1575 l0 -1575 1575 0 1575 0 0 1575 0 1575 -1575 0 -1575 0 0
-1575z m870 -20 l0 -295 -35 0 -35 0 0 295 0 295 35 0 35 0 0 -295z m-257 119
c50 -35 97 -120 97 -176 l0 -38 -190 0 c-178 0 -190 -1 -190 -19 0 -29 42 -82
80 -102 64 -34 122 -25 200 32 11 8 23 7 45 -1 l30 -12 -46 -42 c-93 -85 -210
-87 -303 -5 -58 52 -80 107 -74 193 5 86 41 139 118 179 49 25 63 28 123 24
55 -4 77 -10 110 -33z m661 22 c18 -7 49 -28 69 -46 l37 -32 40 34 c93 80 231
77 315 -7 44 -44 65 -97 65 -167 0 -87 -36 -153 -105 -193 -88 -52 -207 -39
-281 31 l-36 34 -20 -25 c-69 -88 -243 -95 -327 -13 -56 55 -74 101 -69 184 3
61 8 80 33 116 57 82 188 122 279 84z m859 3 c12 -6 34 -22 48 -36 l26 -24 32
30 c37 34 81 46 148 38 57 -6 92 -31 121 -87 20 -40 22 -58 22 -202 l0 -158
-34 0 -35 0 -3 164 c-3 157 -4 166 -27 190 -30 31 -71 41 -115 26 -62 -20 -71
-45 -74 -223 l-4 -158 -31 3 -32 3 -5 162 c-5 152 -6 163 -28 186 -43 46 -137
42 -165 -7 -7 -13 -14 -82 -17 -181 l-5 -160 -32 -3 -33 -3 0 167 c0 189 10
223 79 262 40 24 128 30 164 11z m555 -216 l-3 -218 -32 -3 -33 -3 0 220 0
221 35 0 35 0 -2 -217z"/>
<path d="M1870 1638 c-19 -5 -46 -19 -58 -31 -22 -20 -52 -68 -52 -82 0 -3 70
-5 155 -5 85 0 155 2 155 5 0 14 -30 62 -52 82 -19 17 -90 45 -108 42 -3 0
-21 -5 -40 -11z"/>
<path d="M2567 1635 c-78 -27 -111 -80 -105 -165 7 -95 66 -150 160 -150 88 0
148 65 148 161 0 116 -99 191 -203 154z"/>
<path d="M2960 1638 c-69 -19 -112 -81 -112 -160 1 -92 55 -149 149 -156 48
-3 64 0 92 20 52 35 73 82 68 151 -4 63 -25 101 -73 129 -40 22 -83 28 -124
16z"/>
</g>
</svg>
